<?xml version="1.0" standalone="no"?>
<!DOCTYPE svg PUBLIC "-//W3C//DTD SVG 20010904//EN"
 "http://www.w3.org/TR/2001/REC-SVG-20010904/DTD/svg10.dtd">
<svg version="1.0" xmlns="http://www.w3.org/2000/svg"
 width="300.000000pt" height="300.000000pt" viewBox="0 0 300.000000 300.000000"
 preserveAspectRatio="xMidYMid meet">
<metadata>
Created by potrace 1.14, written by Peter Selinger 2001-2017
</metadata>
<g transform="translate(0.000000,300.000000) scale(0.100000,-0.100000)"
fill="#000000" stroke="none">
<path d="M1119 2909 c-53 -8 -132 -47 -172 -84 -29 -28 -95 -127 -89 -134 2
-2 0 -7 -5 -10 -4 -3 -17 -24 -28 -46 -11 -22 -34 -66 -53 -97 l-32 -57 -53 2
-53 2 3 34 c1 18 5 36 7 39 3 2 1 12 -3 21 -8 14 -30 16 -153 15 -78 -1 -148
-2 -155 -3 -7 -1 -10 -17 -8 -45 1 -25 -1 -49 -4 -54 -3 -5 -27 -9 -53 -9 -73
-2 -74 -2 -99 -22 l-24 -19 -2 -459 c-1 -252 -2 -461 -2 -465 -1 -3 -31 -6
-69 -5 l-67 2 -3 -72 -3 -73 1501 0 1500 0 0 70 c0 49 -4 70 -12 71 -7 1 -41
1 -75 2 l-63 0 0 458 0 458 -23 27 c-22 25 -29 27 -113 28 -64 1 -88 4 -87 13
4 17 -28 23 -122 20 -64 -2 -80 -5 -80 -17 0 -12 -17 -15 -87 -16 l-87 -1 -24
51 c-95 203 -112 236 -119 236 -4 0 -8 5 -8 11 0 30 -112 105 -190 126 -25 7
-744 8 -791 2z m771 -63 c119 -28 183 -102 277 -326 l15 -35 -23 21 c-70 61
-233 141 -359 177 -110 32 -152 38 -280 42 -218 7 -440 -55 -620 -174 -30 -20
-61 -40 -68 -44 -12 -8 49 113 70 141 6 6 7 12 2 12 -5 0 -4 4 1 8 6 4 16 19
24 35 35 68 125 132 204 145 56 10 714 8 757 -2z m-150 -236 c118 -31 285
-108 336 -155 6 -5 22 -17 35 -25 47 -29 185 -176 230 -245 44 -68 97 -170
104 -204 2 -9 11 -35 19 -58 9 -23 18 -57 21 -75 3 -18 9 -46 12 -63 4 -16 7
-84 7 -150 l1 -120 -73 -1 c-67 -1 -73 1 -69 17 3 11 1 19 -4 19 -6 0 -6 7 -1
18 13 26 2 228 -15 255 -2 4 -6 20 -9 35 -3 15 -7 34 -11 42 -3 8 -7 17 -8 20
-1 3 -8 19 -15 35 -7 17 -14 32 -15 35 -29 86 -162 253 -262 329 -111 84 -256
145 -398 166 -319 47 -634 -83 -826 -341 -24 -32 -46 -61 -49 -64 -3 -3 -6
-12 -8 -20 -2 -8 -11 -23 -19 -32 -9 -10 -13 -18 -8 -18 4 0 3 -6 -3 -12 -11
-15 -59 -150 -66 -188 -2 -14 -5 -25 -6 -25 -6 0 -14 -215 -9 -241 5 -27 -5
-31 -70 -31 -81 1 -78 -5 -76 132 2 77 5 108 19 190 1 6 4 15 7 20 4 6 5 18 4
28 -2 9 2 17 8 17 5 0 8 2 5 6 -3 3 4 33 17 67 31 86 37 101 46 107 4 3 9 12
11 20 3 13 27 51 98 154 8 11 48 54 88 94 149 145 332 240 532 277 111 20 314
13 420 -15z m-1017 -195 c-4 -5 -17 -21 -30 -35 -42 -46 -74 -85 -91 -112 -9
-16 -20 -28 -24 -28 -4 0 -8 -6 -8 -14 0 -8 -6 -21 -13 -28 -21 -21 -96 -181
-104 -222 -2 -11 -8 -25 -13 -31 -5 -7 -7 -15 -3 -18 3 -4 0 -13 -7 -22 -7 -8
-10 -15 -7 -15 3 0 0 -19 -5 -42 -19 -78 -30 -284 -16 -310 11 -22 -6 -26
-112 -24 l-85 1 -2 425 c-1 234 0 435 3 448 2 13 13 26 24 30 31 12 499 9 493
-3z m2052 -6 c14 -13 16 -68 16 -435 0 -230 0 -428 -1 -440 0 -19 -6 -20 -97
-20 l-97 1 -2 130 c-2 110 -7 170 -14 170 -1 0 -3 9 -4 20 -6 47 -30 134 -52
183 -13 29 -23 55 -23 57 -1 14 -58 117 -94 169 -44 66 -67 94 -114 142 -17
17 -30 34 -28 36 2 2 114 3 249 3 209 0 248 -3 261 -16z m-1187 -433 c29 -8
71 -26 95 -39 44 -27 138 -117 122 -117 -6 0 -4 -4 3 -8 21 -14 54 -124 54
-182 1 -65 -4 -109 -12 -112 -3 0 -162 -2 -353 -3 -332 -1 -349 -1 -358 17
-14 25 -13 152 1 178 6 11 8 20 5 20 -17 0 65 127 104 162 55 48 84 64 153 82
68 19 120 19 186 2z"/>
<path d="M2570 2322 c-38 -13 -52 -68 -24 -96 34 -34 94 -13 101 37 6 35 -41
71 -77 59z"/>
<path d="M1253 1232 c-12 -2 -25 -12 -28 -23 -4 -10 -11 -19 -16 -19 -5 0 -9
-7 -9 -17 0 -9 -3 -13 -6 -10 -10 9 -74 -84 -67 -96 3 -6 1 -7 -4 -4 -6 4 -18
-3 -26 -16 -8 -12 -24 -33 -36 -46 -12 -14 -19 -31 -16 -38 2 -8 1 -12 -4 -9
-11 7 -74 -72 -66 -84 4 -6 -1 -7 -12 -3 -10 3 -15 2 -11 -2 5 -5 -1 -14 -12
-22 -11 -8 -20 -19 -20 -24 0 -6 -14 -24 -30 -42 -17 -18 -28 -38 -25 -45 3
-7 1 -11 -4 -8 -11 7 -51 -40 -51 -62 0 -14 -2 -15 -9 -2 -6 8 -7 18 -5 22 3
4 -1 8 -8 8 -8 0 -9 3 -3 8 14 9 14 145 1 154 -8 5 -8 8 0 8 13 0 13 59 0 79
-6 9 -5 12 1 8 14 -9 12 56 -2 65 -7 5 -6 8 1 8 7 0 10 29 9 83 -3 114 -4 119
-15 112 -5 -3 -10 -2 -10 3 0 8 -17 9 -53 3 -5 0 -5 -5 -2 -11 3 -5 2 -10 -3
-10 -6 0 -10 -167 -10 -445 0 -430 1 -446 20 -459 20 -15 54 -11 65 7 11 19
11 111 -1 126 -7 9 -7 12 -1 9 7 -4 11 8 11 31 0 21 6 44 12 52 7 8 21 26 33
41 27 37 30 35 143 -70 16 -15 25 -20 21 -12 -4 8 3 4 14 -10 11 -14 21 -20
21 -15 1 6 5 1 9 -10 5 -11 12 -20 17 -20 11 0 36 -20 66 -52 12 -13 28 -23
35 -23 7 0 13 -4 13 -10 0 -5 16 -20 36 -34 37 -25 65 -25 86 2 11 13 11 14
-2 7 -13 -8 -13 -7 -1 8 12 15 11 20 -7 36 -12 10 -19 21 -15 25 3 3 -1 6 -10
6 -10 0 -17 5 -17 10 0 6 -4 10 -10 10 -5 0 -29 18 -52 40 -24 22 -49 40 -56
40 -7 0 -10 5 -7 10 3 6 0 10 -8 10 -8 0 -18 7 -21 16 -4 9 -9 14 -13 10 -3
-3 -13 3 -20 14 -8 11 -19 18 -24 14 -5 -3 -8 -2 -7 3 2 4 0 9 -5 10 -4 2 -19
15 -33 30 -15 16 -30 27 -34 26 -4 -1 -13 9 -20 23 -12 21 -11 26 7 44 12 11
30 33 39 50 10 16 21 30 25 30 9 0 53 73 51 83 -2 5 2 6 7 3 5 -4 19 9 30 27
11 18 29 41 40 51 11 10 18 23 15 27 -3 5 0 9 5 9 6 0 11 5 11 11 0 5 -5 7
-12 3 -7 -4 -8 -3 -4 5 4 6 12 9 17 6 5 -4 16 1 25 9 8 9 13 16 9 16 -4 0 0 6
7 14 7 8 22 26 33 42 11 15 26 33 33 40 6 7 12 17 12 23 0 6 4 11 9 11 12 0
21 39 10 46 -5 3 -7 9 -4 14 6 10 -23 17 -52 12z"/>
<path d="M1908 1212 c-12 -14 -16 -742 -4 -761 4 -6 4 -11 -1 -11 -7 0 -7 -72
0 -114 2 -10 12 -23 22 -28 14 -8 16 -8 10 2 -6 10 -4 11 6 4 19 -12 241 -13
257 -1 6 5 12 6 12 1 0 -5 54 -9 120 -10 79 0 120 3 120 10 0 7 3 6 8 -1 12
-19 55 7 57 35 2 31 -27 46 -91 48 -29 1 -58 5 -65 9 -9 6 -11 3 -5 -10 5 -14
3 -15 -6 -7 -7 5 -58 10 -114 9 -55 0 -107 4 -114 8 -10 6 -12 4 -6 -11 6 -15
5 -17 -5 -6 -7 6 -21 12 -32 12 -11 0 -16 -5 -12 -12 4 -7 0 -5 -7 4 -9 10
-19 14 -28 8 -29 -18 -39 0 -36 70 2 42 -1 67 -7 63 -5 -3 -4 4 2 15 8 15 8
22 -2 25 -9 4 -9 6 1 6 6 1 12 6 12 12 0 5 -4 7 -10 4 -7 -4 -7 3 0 19 6 18 6
26 -1 26 -6 0 -7 5 -3 12 11 17 12 128 1 121 -5 -3 -4 4 2 15 8 15 8 22 -2 25
-9 4 -9 6 1 6 6 1 12 6 12 12 0 5 -4 7 -10 4 -7 -4 -7 3 0 19 6 18 6 26 -1 26
-6 0 -7 5 -3 12 10 16 11 119 2 125 -5 2 -4 12 1 22 6 10 6 23 1 31 -5 8 -6
19 -2 24 9 15 9 77 0 82 -4 3 -5 11 -2 19 14 34 -53 58 -78 27z m23 -809 c13
-16 12 -17 -3 -4 -10 7 -18 15 -18 17 0 8 8 3 21 -13z"/>
<path d="M0 70 l0 -70 1500 0 1500 0 0 70 0 70 -1500 0 -1500 0 0 -70z"/>
</g>
</svg>
